<svg preserveAspectRatio="none" width="100%" height="100%" overflow="visible" style="display: block;" viewBox="0 0 625.959 264.18" fill="none" xmlns="http://www.w3.org/2000/svg">
<g id="linhas">
<path id="brading-stroke" d="M2.0487 251.406C18.0596 219.384 64.3891 137.149 121.62 64.3844C178.85 -8.38004 250.729 34.0659 279.514 64.3844C455.703 173.122 582.529 67.4504 623.919 1.02211" stroke="var(--stroke-0, #C4E703)" style="stroke:#C4E703;stroke:color(display-p3 0.7686 0.9059 0.0118);stroke-opacity:1;" stroke-width="2.04395" stroke-linecap="round"/>
<path id="brading-fundo" d="M624.938 252.427H3.06753C19.0784 220.405 65.4079 138.171 122.638 65.4062C179.869 -7.35825 251.748 35.0877 280.533 65.4062C456.721 174.144 583.548 68.4722 624.938 2.0439V252.427Z" fill="url(#paint0_linear_2058_1304)" fill-opacity="0.87" style=""/>
<path id="red-fundo" d="M340.32 85.1768C240.576 50.4297 71.8819 189.929 0.00314499 264.022H623.918V123.501C623.747 133.38 614.618 157.226 579.462 173.577C535.517 194.017 465.001 128.611 340.32 85.1768Z" fill="url(#paint1_linear_2058_1304)" fill-opacity="0.51" style=""/>
<path id="red-stroke" d="M1.02197 263.158C72.9008 189.065 241.594 49.5659 341.339 84.313C466.02 127.747 536.536 193.153 580.481 172.714C615.637 156.362 624.766 132.516 624.937 122.637" stroke="var(--stroke-0, #E61E32)" style="stroke:#E61E32;stroke:color(display-p3 0.9020 0.1176 0.1961);stroke-opacity:1;" stroke-width="2.04395" stroke-linecap="round"/>
</g>
<defs>
<linearGradient id="paint0_linear_2058_1304" x1="314.003" y1="2.0439" x2="314.003" y2="252.427" gradientUnits="userSpaceOnUse">
<stop stop-color="#EDFF8B" style="stop-color:#EDFF8B;stop-color:color(display-p3 0.9294 1.0000 0.5451);stop-opacity:1;"/>
<stop offset="1" stop-color="white" style="stop-color:white;stop-opacity:1;"/>
</linearGradient>
<linearGradient id="paint1_linear_2058_1304" x1="311.96" y1="79.7141" x2="311.705" y2="264.533" gradientUnits="userSpaceOnUse">
<stop stop-color="#EB4B5B" style="stop-color:#EB4B5B;stop-color:color(display-p3 0.9216 0.2941 0.3569);stop-opacity:1;"/>
<stop offset="1" stop-color="white" style="stop-color:white;stop-opacity:1;"/>
</linearGradient>
</defs>
</svg>
