<svg preserveAspectRatio="none" width="100%" height="100%" overflow="visible" style="display: block;" viewBox="0 0 24 18" fill="none" xmlns="http://www.w3.org/2000/svg">
<g id="icon">
<path d="M5.50008 14.0002C6.32851 14.0002 7.00008 13.3286 7.00008 12.5002C7.00008 11.6717 6.32851 11.0002 5.50008 11.0002C4.67165 11.0002 4.00008 11.6717 4.00008 12.5002C4.00008 13.3286 4.67165 14.0002 5.50008 14.0002Z" fill="var(--fill-0, #080B12)" style="fill:#080B12;fill:color(display-p3 0.0314 0.0431 0.0706);fill-opacity:1;"/>
<path d="M19 0H5C3.6744 0.00158786 2.40356 0.528882 1.46622 1.46622C0.528882 2.40356 0.00158786 3.6744 0 5V13C0.00158786 14.3256 0.528882 15.5964 1.46622 16.5338C2.40356 17.4711 3.6744 17.9984 5 18H19C20.3256 17.9984 21.5964 17.4711 22.5338 16.5338C23.4711 15.5964 23.9984 14.3256 24 13V5C23.9984 3.6744 23.4711 2.40356 22.5338 1.46622C21.5964 0.528882 20.3256 0.00158786 19 0ZM5 2H19C19.7956 2 20.5587 2.31607 21.1213 2.87868C21.6839 3.44129 22 4.20435 22 5H2C2 4.20435 2.31607 3.44129 2.87868 2.87868C3.44129 2.31607 4.20435 2 5 2ZM19 16H5C4.20435 16 3.44129 15.6839 2.87868 15.1213C2.31607 14.5587 2 13.7956 2 13V7H22V13C22 13.7956 21.6839 14.5587 21.1213 15.1213C20.5587 15.6839 19.7956 16 19 16Z" fill="var(--fill-0, #080B12)" style="fill:#080B12;fill:color(display-p3 0.0314 0.0431 0.0706);fill-opacity:1;"/>
</g>
</svg>
