<svg preserveAspectRatio="none" width="100%" height="100%" overflow="visible" style="display: block;" viewBox="0 0 15.6932 18.0227" fill="none" xmlns="http://www.w3.org/2000/svg">
<path id="Vector" d="M15.2955 5.20455L10.8636 5.47727C10.7879 5.09848 10.625 4.75758 10.375 4.45455C10.125 4.14394 9.79546 3.89773 9.38637 3.71591C8.98485 3.52651 8.50379 3.43182 7.94318 3.43182C7.19318 3.43182 6.56061 3.59091 6.04546 3.90909C5.5303 4.2197 5.27273 4.63636 5.27273 5.15909C5.27273 5.57576 5.43939 5.92803 5.77273 6.21591C6.10606 6.50379 6.67803 6.73485 7.48864 6.90909L10.6477 7.54545C12.3447 7.89394 13.6099 8.45454 14.4432 9.22727C15.2765 10 15.6932 11.0152 15.6932 12.2727C15.6932 13.4167 15.3561 14.4205 14.6818 15.2841C14.0152 16.1477 13.0985 16.822 11.9318 17.3068C10.7727 17.7841 9.43561 18.0227 7.92046 18.0227C5.60985 18.0227 3.76894 17.5417 2.39773 16.5795C1.03409 15.6098 0.234848 14.2917 0 12.625L4.76137 12.375C4.90531 13.0795 5.25379 13.6174 5.80682 13.9886C6.35985 14.3523 7.06819 14.5341 7.93182 14.5341C8.78031 14.5341 9.46213 14.3712 9.97728 14.0455C10.5 13.7121 10.7652 13.2841 10.7727 12.7614C10.7652 12.322 10.5795 11.9621 10.2159 11.6818C9.85228 11.3939 9.29167 11.1742 8.5341 11.0227L5.51137 10.4205C3.80682 10.0795 2.53789 9.48864 1.70455 8.64773C0.878794 7.80682 0.465912 6.73485 0.465912 5.43182C0.465912 4.31061 0.768939 3.3447 1.375 2.53409C1.98864 1.72348 2.84849 1.09848 3.95455 0.65909C5.06819 0.219697 6.37122 0 7.86364 0C10.0682 0 11.803 0.465909 13.0682 1.39773C14.3409 2.32954 15.0833 3.59849 15.2955 5.20455Z" fill="var(--fill-0, #060A11)" style="fill:#060A11;fill:color(display-p3 0.0235 0.0392 0.0667);fill-opacity:1;"/>
</svg>
