<svg preserveAspectRatio="none" width="100%" height="100%" overflow="visible" style="display: block;" viewBox="0 0 6.72222 7.7489" fill="none" xmlns="http://www.w3.org/2000/svg">
<path id="Vector" d="M2.49333 7.7489C2.01422 7.7489 1.58726 7.66578 1.21244 7.49956C0.837628 7.33008 0.541038 7.08075 0.322667 6.75156C0.107556 6.41912 0 6.00519 0 5.50978C0 5.0926 0.0765914 4.74223 0.229777 4.45867C0.382962 4.17511 0.591554 3.94697 0.855555 3.77422C1.11955 3.60148 1.41941 3.47111 1.75511 3.38311C2.09408 3.29511 2.44933 3.23319 2.82089 3.19734C3.25763 3.15171 3.60963 3.10934 3.87689 3.07022C4.14415 3.02785 4.33808 2.96593 4.45867 2.88445C4.57926 2.80297 4.63956 2.68237 4.63956 2.52267V2.49334C4.63956 2.18371 4.54178 1.94415 4.34623 1.77467C4.15393 1.60519 3.88015 1.52045 3.52489 1.52045C3.15007 1.52045 2.85185 1.60356 2.63022 1.76978C2.40859 1.93274 2.26193 2.13808 2.19022 2.38578L0.263998 2.22934C0.361776 1.77304 0.554074 1.37867 0.840889 1.04622C1.1277 0.710519 1.49763 0.453037 1.95067 0.273777C2.40696 0.0912591 2.93496 0 3.53467 0C3.95185 0 4.35111 0.0488888 4.73245 0.146666C5.11704 0.244444 5.45763 0.396 5.75423 0.601333C6.05408 0.806667 6.29038 1.07067 6.46312 1.39333C6.63586 1.71274 6.72222 2.09571 6.72222 2.54222V7.60712H4.74711V6.56578H4.68845C4.56786 6.80045 4.40652 7.00741 4.20445 7.18667C4.00237 7.36267 3.75956 7.50119 3.476 7.60223C3.19245 7.70001 2.86489 7.7489 2.49333 7.7489ZM3.08978 6.31156C3.39615 6.31156 3.66667 6.25126 3.90133 6.13067C4.136 6.00682 4.32015 5.8406 4.45378 5.632C4.58741 5.42341 4.65422 5.18712 4.65422 4.92312V4.12623C4.58904 4.1686 4.49941 4.20771 4.38533 4.24356C4.27452 4.27615 4.14904 4.30711 4.00889 4.33645C3.86874 4.36252 3.72859 4.38697 3.58845 4.40978C3.4483 4.42934 3.32119 4.44726 3.20711 4.46356C2.96267 4.49941 2.74919 4.55645 2.56667 4.63467C2.38415 4.71289 2.24237 4.81882 2.14133 4.95245C2.0403 5.08282 1.98978 5.24578 1.98978 5.44134C1.98978 5.72489 2.09244 5.94163 2.29778 6.09156C2.50637 6.23823 2.77037 6.31156 3.08978 6.31156Z" fill="var(--fill-0, #060A11)" style="fill:#060A11;fill:color(display-p3 0.0235 0.0392 0.0667);fill-opacity:1;"/>
</svg>
