<svg preserveAspectRatio="none" width="100%" height="100%" overflow="visible" style="display: block;" viewBox="0 0 15.4385 11.175" fill="none" xmlns="http://www.w3.org/2000/svg">
<path id="Vector" d="M5.2635 11.175C5.13017 11.175 5.00517 11.154 4.8885 11.112C4.77183 11.0707 4.6635 11 4.5635 10.9L0.263502 6.6C0.0801684 6.41667 -0.00749826 6.179 0.000501742 5.887C0.00916841 5.59567 0.105168 5.35833 0.288501 5.175C0.471835 4.99167 0.705168 4.9 0.988502 4.9C1.27183 4.9 1.50517 4.99167 1.6885 5.175L5.2635 8.75L13.7385 0.275C13.9218 0.0916668 14.1595 0 14.4515 0C14.7428 0 14.9802 0.0916668 15.1635 0.275C15.3468 0.458333 15.4385 0.695667 15.4385 0.987C15.4385 1.279 15.3468 1.51667 15.1635 1.7L5.9635 10.9C5.8635 11 5.75517 11.0707 5.6385 11.112C5.52183 11.154 5.39683 11.175 5.2635 11.175Z" fill="var(--fill-0, #15BE78)" style="fill:#15BE78;fill:color(display-p3 0.0824 0.7451 0.4706);fill-opacity:1;"/>
</svg>
