<svg preserveAspectRatio="none" width="100%" height="100%" overflow="visible" style="display: block;" viewBox="0 0 6.75156 7.75379" fill="none" xmlns="http://www.w3.org/2000/svg">
<path id="Vector" d="M6.58045 2.23911L4.67378 2.35645C4.64119 2.19348 4.57111 2.04682 4.46356 1.91645C4.356 1.78282 4.21423 1.67689 4.03823 1.59867C3.86549 1.51719 3.65852 1.47645 3.41734 1.47645C3.09467 1.47645 2.82252 1.54489 2.60089 1.68178C2.37926 1.81541 2.26845 1.99467 2.26845 2.21956C2.26845 2.39882 2.34015 2.55037 2.48356 2.67422C2.62697 2.79808 2.87304 2.89748 3.22178 2.97245L4.58089 3.24622C5.31097 3.39615 5.85526 3.63734 6.21378 3.96978C6.5723 4.30223 6.75156 4.73897 6.75156 5.28C6.75156 5.77215 6.60653 6.20401 6.31645 6.57556C6.02964 6.94712 5.63527 7.23719 5.13334 7.44578C4.63467 7.65112 4.05941 7.75378 3.40756 7.75378C2.41348 7.75378 1.62148 7.54682 1.03156 7.1329C0.44489 6.71571 0.101037 6.1486 0 5.43156L2.04845 5.324C2.11037 5.62712 2.2603 5.85852 2.49823 6.01823C2.73615 6.17467 3.04089 6.25289 3.41245 6.25289C3.77749 6.25289 4.07082 6.18282 4.29245 6.04267C4.51734 5.89926 4.63141 5.71512 4.63467 5.49023C4.63141 5.30119 4.55156 5.14637 4.39512 5.02578C4.23867 4.90193 3.99749 4.80741 3.67156 4.74223L2.37111 4.48311C1.63778 4.33645 1.09186 4.08223 0.733337 3.72045C0.378077 3.35867 0.200446 2.89748 0.200446 2.33689C0.200446 1.85452 0.330815 1.43896 0.591556 1.09022C0.855556 0.741482 1.22549 0.472593 1.70134 0.283555C2.18045 0.0945185 2.74104 0 3.38312 0C4.33156 0 5.07793 0.200444 5.62223 0.601333C6.16978 1.00222 6.48919 1.54815 6.58045 2.23911Z" fill="var(--fill-0, #060A11)" style="fill:#060A11;fill:color(display-p3 0.0235 0.0392 0.0667);fill-opacity:1;"/>
</svg>
