<svg preserveAspectRatio="none" width="100%" height="100%" overflow="visible" style="display: block;" viewBox="0 0 7.04978 7.75379" fill="none" xmlns="http://www.w3.org/2000/svg">
<path id="Vector" d="M3.696 7.75378C2.92682 7.75378 2.26519 7.59082 1.71111 7.2649C1.1603 6.93571 0.736594 6.47941 0.440001 5.89601C0.146667 5.3126 0 4.64119 0 3.88178C0 3.11259 0.148297 2.43793 0.44489 1.85778C0.744742 1.27437 1.17008 0.819704 1.72089 0.493778C2.27171 0.164593 2.92682 0 3.68623 0C4.34134 0 4.91497 0.118963 5.40712 0.356889C5.89927 0.594815 6.28875 0.928889 6.57556 1.35911C6.86238 1.78933 7.02045 2.29452 7.04978 2.87467H5.08445C5.02904 2.49985 4.88238 2.19837 4.64445 1.97022C4.40978 1.73882 4.10178 1.62311 3.72045 1.62311C3.39778 1.62311 3.11586 1.71111 2.87467 1.88711C2.63674 2.05985 2.45097 2.31245 2.31734 2.64489C2.18371 2.97734 2.11689 3.37986 2.11689 3.85245C2.11689 4.33156 2.18208 4.73897 2.31245 5.07467C2.44608 5.41038 2.63348 5.66623 2.87467 5.84223C3.11586 6.01823 3.39778 6.10623 3.72045 6.10623C3.95837 6.10623 4.17186 6.05734 4.36089 5.95956C4.55319 5.86178 4.71126 5.72 4.83512 5.53423C4.96223 5.34519 5.04534 5.11867 5.08445 4.85467H7.04978C7.01719 5.4283 6.86075 5.93349 6.58045 6.37023C6.30341 6.80371 5.92045 7.14267 5.43156 7.38712C4.94267 7.63156 4.36415 7.75378 3.696 7.75378Z" fill="var(--fill-0, #060A11)" style="fill:#060A11;fill:color(display-p3 0.0235 0.0392 0.0667);fill-opacity:1;"/>
</svg>
