<svg preserveAspectRatio="none" width="100%" height="100%" overflow="visible" style="display: block;" viewBox="0 0 6.95208 10.0125" fill="none" xmlns="http://www.w3.org/2000/svg">
<path id="Vector" d="M2.08267 5.67112V10.0125H0V0H2.024V3.828H2.112C2.28149 3.38474 2.55526 3.03763 2.93334 2.78667C3.31141 2.53245 3.78563 2.40534 4.356 2.40534C4.87749 2.40534 5.33215 2.51941 5.72001 2.74756C6.11112 2.97245 6.41423 3.29674 6.62934 3.72045C6.84771 4.14089 6.95527 4.64445 6.95201 5.23112V10.0125H4.86934V5.60267C4.8726 5.13986 4.75526 4.77971 4.51734 4.52223C4.28267 4.26475 3.95349 4.136 3.52978 4.136C3.24623 4.136 2.99526 4.1963 2.77689 4.31689C2.56178 4.43749 2.3923 4.61349 2.26845 4.84489C2.14785 5.07304 2.08593 5.34845 2.08267 5.67112Z" fill="var(--fill-0, #060A11)" style="fill:#060A11;fill:color(display-p3 0.0235 0.0392 0.0667);fill-opacity:1;"/>
</svg>
