<svg preserveAspectRatio="none" width="100%" height="100%" overflow="visible" style="display: block;" viewBox="0 0 9.33333 7.99423" fill="none" xmlns="http://www.w3.org/2000/svg">
<path id="icon" d="M8.66667 3.33386H2L4.19333 1.14053C4.25582 1.07855 4.30541 1.00482 4.33926 0.923578C4.37311 0.842339 4.39053 0.755202 4.39053 0.667194C4.39053 0.579186 4.37311 0.492049 4.33926 0.41081C4.30541 0.329571 4.25582 0.255837 4.19333 0.193861C4.06842 0.0696943 3.89946 0 3.72333 0C3.54721 0 3.37824 0.0696943 3.25333 0.193861L0.393333 3.06053C0.142942 3.30942 0.00148853 3.64747 0 4.00052V4.00052C0.00324439 4.35126 0.144563 4.68659 0.393333 4.93386L3.25333 7.80052C3.31549 7.86224 3.3892 7.91111 3.47025 7.94435C3.55129 7.97759 3.63809 7.99453 3.72569 7.99422C3.81329 7.99391 3.89996 7.97635 3.98077 7.94255C4.06159 7.90874 4.13495 7.85934 4.19667 7.79719C4.25839 7.73503 4.30726 7.66132 4.3405 7.58027C4.37373 7.49923 4.39068 7.41243 4.39037 7.32483C4.39006 7.23723 4.3725 7.15056 4.33869 7.06975C4.30489 6.98894 4.25549 6.91558 4.19333 6.85385L2 4.66719H8.66667C8.84348 4.66719 9.01305 4.59695 9.13807 4.47193C9.2631 4.3469 9.33333 4.17733 9.33333 4.00052C9.33333 3.82371 9.2631 3.65414 9.13807 3.52912C9.01305 3.4041 8.84348 3.33386 8.66667 3.33386Z" fill="var(--fill-0, #080B12)" style="fill:#080B12;fill:color(display-p3 0.0314 0.0431 0.0706);fill-opacity:1;"/>
</svg>
