<svg preserveAspectRatio="none" width="100%" height="100%" overflow="visible" style="display: block;" viewBox="0 0 7.56982 16.0027" fill="none" xmlns="http://www.w3.org/2000/svg">
<path id="icon" d="M0.670532 16.0027C0.582794 16.0032 0.49582 15.9864 0.414595 15.9532C0.33337 15.92 0.259492 15.8712 0.197199 15.8094C0.134713 15.7474 0.0851172 15.6737 0.0512714 15.5924C0.0174257 15.5112 0 15.4241 0 15.336C0 15.248 0.0174257 15.1609 0.0512714 15.0797C0.0851172 14.9984 0.134713 14.9247 0.197199 14.8627L5.64387 9.41605C6.0184 9.04105 6.22877 8.53272 6.22877 8.00272C6.22877 7.47272 6.0184 6.96439 5.64387 6.58939L0.197199 1.14273C0.0716631 1.01719 0.00113773 0.846928 0.00113773 0.669394C0.00113773 0.491859 0.0716631 0.321597 0.197199 0.196061C0.322735 0.0705252 0.492998 0 0.670532 0C0.848067 0 1.01833 0.0705252 1.14387 0.196061L6.59053 5.64272C6.90095 5.95236 7.14724 6.3202 7.31528 6.72516C7.48332 7.13013 7.56982 7.56427 7.56982 8.00272C7.56982 8.44117 7.48332 8.87531 7.31528 9.28028C7.14724 9.68524 6.90095 10.0531 6.59053 10.3627L1.14387 15.8094C1.08157 15.8712 1.00769 15.92 0.92647 15.9532C0.845245 15.9864 0.75827 16.0032 0.670532 16.0027Z" fill="var(--fill-0, #080B12)" style="fill:#080B12;fill:color(display-p3 0.0314 0.0431 0.0706);fill-opacity:1;"/>
</svg>
