<svg preserveAspectRatio="none" width="100%" height="100%" overflow="visible" style="display: block;" viewBox="0 0 72 72" fill="none" xmlns="http://www.w3.org/2000/svg">
<g id="Group 37">
<path id="fundo-gr&#195;&#161;fico" d="M72 36C72 55.8823 55.8823 72 36 72C16.1177 72 0 55.8823 0 36C0 16.1177 16.1177 0 36 0C55.8823 0 72 16.1177 72 36ZM8.18521 36C8.18521 51.3617 20.6383 63.8148 36 63.8148C51.3617 63.8148 63.8148 51.3617 63.8148 36C63.8148 20.6383 51.3617 8.18521 36 8.18521C20.6383 8.18521 8.18521 20.6383 8.18521 36Z" fill="var(--fill-0, #E7E8EA)" style="fill:#E7E8EA;fill:color(display-p3 0.9059 0.9098 0.9176);fill-opacity:1;"/>
<path id="resulta-gr&#195;&#161;fico" d="M36 0C40.7276 5.63759e-08 45.4089 0.931168 49.7766 2.74034C54.1443 4.54951 58.1129 7.20125 61.4558 10.5442C64.7988 13.8871 67.4505 17.8557 69.2597 22.2234C71.0688 26.5911 72 31.2724 72 36L63.6753 36C63.6753 32.3656 62.9594 28.7669 61.5686 25.4091C60.1778 22.0514 58.1393 19.0005 55.5694 16.4306C52.9995 13.8607 49.9486 11.8222 46.5909 10.4314C43.2332 9.04056 39.6344 8.32472 36 8.32472L36 0Z" fill="var(--fill-0, #C4E703)" style="fill:#C4E703;fill:color(display-p3 0.7686 0.9059 0.0118);fill-opacity:1;"/>
</g>
</svg>
