<svg preserveAspectRatio="none" width="100%" height="100%" overflow="visible" style="display: block;" viewBox="0 0 16.3864 18.0227" fill="none" xmlns="http://www.w3.org/2000/svg">
<path id="Vector" d="M8.59091 18.0227C6.80303 18.0227 5.26515 17.6439 3.97727 16.8864C2.69697 16.1212 1.71212 15.0606 1.02273 13.7045C0.34091 12.3485 0 10.7879 0 9.02273C0 7.23485 0.344698 5.66667 1.03409 4.31818C1.73106 2.96212 2.7197 1.9053 4 1.14773C5.2803 0.382575 6.80303 0 8.56818 0C10.0909 0 11.4242 0.276515 12.5682 0.829544C13.7121 1.38257 14.6174 2.15909 15.2841 3.15909C15.9508 4.15909 16.3182 5.33333 16.3864 6.68182H11.8182C11.6894 5.81061 11.3485 5.10985 10.7955 4.57955C10.25 4.04167 9.53409 3.77273 8.64773 3.77273C7.89773 3.77273 7.24243 3.97727 6.68182 4.38636C6.12879 4.78788 5.69697 5.375 5.38636 6.14773C5.07576 6.92045 4.92046 7.85606 4.92046 8.95455C4.92046 10.0682 5.07197 11.0152 5.375 11.7955C5.68561 12.5758 6.12121 13.1705 6.68182 13.5795C7.24243 13.9886 7.89773 14.1932 8.64773 14.1932C9.20076 14.1932 9.69697 14.0795 10.1364 13.8523C10.5833 13.625 10.9508 13.2955 11.2386 12.8636C11.5341 12.4242 11.7273 11.8977 11.8182 11.2841H16.3864C16.3106 12.6174 15.947 13.7917 15.2955 14.8068C14.6515 15.8144 13.7614 16.6023 12.625 17.1705C11.4886 17.7386 10.1439 18.0227 8.59091 18.0227Z" fill="var(--fill-0, #060A11)" style="fill:#060A11;fill:color(display-p3 0.0235 0.0392 0.0667);fill-opacity:1;"/>
</svg>
