<svg preserveAspectRatio="none" width="100%" height="100%" overflow="visible" style="display: block;" viewBox="0 0 45.2365 24" fill="none" xmlns="http://www.w3.org/2000/svg">
<path id="Vector" d="M31.9524 24C31.3388 24 30.5006 24 30.0006 24C29.5006 24 0 24 0 24L0.000637054 20.2159C0.000637054 20.2159 31.0774 20.1553 31.532 20.1705C31.9941 20.1856 32.3918 20.0795 32.7251 19.8523C33.066 19.625 33.3426 19.2386 33.5547 18.6932L33.8388 17.9545L27.5774 0H32.6683L36.282 12.8182H36.4638L40.1115 0H45.2365L38.4524 19.3409C38.1267 20.2803 37.6835 21.0985 37.1229 21.7955C36.5698 22.5 35.8691 23.0417 35.0206 23.4205C34.1721 23.8068 33.1494 24 31.9524 24Z" fill="var(--fill-0, #060A11)" style="fill:#060A11;fill:color(display-p3 0.0235 0.0392 0.0667);fill-opacity:1;"/>
</svg>
