<svg preserveAspectRatio="none" width="100%" height="100%" overflow="visible" style="display: block;" viewBox="0 0 9.33439 4.7821" fill="none" xmlns="http://www.w3.org/2000/svg">
<path id="icon" d="M9.14053 0.197198C9.07855 0.134713 9.00482 0.0851167 8.92358 0.051271C8.84234 0.0174253 8.7552 0 8.6672 0C8.57919 0 8.49205 0.0174253 8.41081 0.051271C8.32957 0.0851167 8.25584 0.134713 8.19386 0.197198L5.14053 3.25053C5.07855 3.31301 5.00482 3.36261 4.92358 3.39645C4.84234 3.4303 4.7552 3.44772 4.6672 3.44772C4.57919 3.44772 4.49205 3.4303 4.41081 3.39645C4.32957 3.36261 4.25584 3.31301 4.19386 3.25053L1.14053 0.197198C1.07855 0.134713 1.00482 0.0851167 0.92358 0.051271C0.84234 0.0174253 0.755203 0 0.667195 0C0.579187 0 0.49205 0.0174253 0.41081 0.051271C0.329571 0.0851167 0.255837 0.134713 0.193862 0.197198C0.0696944 0.322107 0 0.491074 0 0.667197C0 0.843321 0.0696944 1.01229 0.193862 1.1372L3.25386 4.19719C3.62886 4.57172 4.13719 4.7821 4.6672 4.7821C5.1972 4.7821 5.70553 4.57172 6.08053 4.19719L9.14053 1.1372C9.2647 1.01229 9.33439 0.843321 9.33439 0.667197C9.33439 0.491074 9.2647 0.322107 9.14053 0.197198V0.197198Z" fill="var(--fill-0, #080B12)" style="fill:#080B12;fill:color(display-p3 0.0314 0.0431 0.0706);fill-opacity:1;"/>
</svg>
