<svg preserveAspectRatio="none" width="100%" height="100%" overflow="visible" style="display: block;" viewBox="0 0 15.625 18.0114" fill="none" xmlns="http://www.w3.org/2000/svg">
<path id="Vector" d="M5.79545 18.0114C4.68181 18.0114 3.68939 17.8182 2.81818 17.4318C1.94696 17.0379 1.25758 16.4583 0.75 15.6932C0.25 14.9205 0 13.9583 0 12.8068C0 11.8371 0.178027 11.0227 0.534088 10.3636C0.890149 9.70455 1.375 9.17424 1.98863 8.77273C2.60227 8.37121 3.29924 8.06818 4.07954 7.86364C4.86742 7.65909 5.69318 7.51515 6.55682 7.43182C7.57197 7.32576 8.39015 7.22727 9.01136 7.13636C9.63257 7.03788 10.0833 6.89394 10.3636 6.70455C10.6439 6.51515 10.7841 6.23485 10.7841 5.86364V5.79545C10.7841 5.07576 10.5568 4.51894 10.1023 4.125C9.6553 3.73106 9.01893 3.53409 8.19318 3.53409C7.32196 3.53409 6.62878 3.72727 6.11363 4.11364C5.59848 4.49242 5.25757 4.9697 5.0909 5.54545L0.613632 5.18182C0.840905 4.12121 1.28788 3.20454 1.95454 2.43182C2.62121 1.65151 3.48106 1.05303 4.53409 0.636362C5.59469 0.212121 6.82196 0 8.2159 0C9.1856 0 10.1136 0.113636 11 0.340908C11.8939 0.568181 12.6856 0.920454 13.375 1.39773C14.072 1.875 14.6212 2.48864 15.0227 3.23864C15.4242 3.98106 15.625 4.87121 15.625 5.90909V17.6818H11.0341V15.2614H10.8977C10.6174 15.8068 10.2424 16.2879 9.77273 16.7045C9.30303 17.1136 8.73863 17.4356 8.07954 17.6705C7.42045 17.8977 6.65908 18.0114 5.79545 18.0114ZM7.18182 14.6705C7.89394 14.6705 8.52272 14.5303 9.06818 14.25C9.61363 13.9621 10.0417 13.5758 10.3523 13.0909C10.6629 12.6061 10.8182 12.0568 10.8182 11.4432V9.59091C10.6667 9.68939 10.4583 9.7803 10.1932 9.86364C9.9356 9.93939 9.64393 10.0114 9.31818 10.0795C8.99242 10.1402 8.66666 10.197 8.3409 10.25C8.01515 10.2955 7.7197 10.3371 7.45454 10.375C6.88636 10.4583 6.39015 10.5909 5.9659 10.7727C5.54166 10.9545 5.21212 11.2008 4.97727 11.5114C4.74242 11.8144 4.625 12.1932 4.625 12.6477C4.625 13.3068 4.86363 13.8106 5.3409 14.1591C5.82575 14.5 6.43939 14.6705 7.18182 14.6705Z" fill="var(--fill-0, #060A11)" style="fill:#060A11;fill:color(display-p3 0.0235 0.0392 0.0667);fill-opacity:1;"/>
</svg>
