<svg preserveAspectRatio="none" width="100%" height="100%" overflow="visible" style="display: block;" viewBox="0 0 12.6216 23.9974" fill="none" xmlns="http://www.w3.org/2000/svg">
<path id="icon" d="M0.290792 6.20737C0.478155 6.39362 0.731607 6.49816 0.995792 6.49816C1.25998 6.49816 1.51343 6.39362 1.70079 6.20737L5.29079 2.57736V22.9974C5.29079 23.2626 5.39615 23.517 5.58369 23.7045C5.77122 23.892 6.02558 23.9974 6.29079 23.9974C6.55601 23.9974 6.81036 23.892 6.9979 23.7045C7.18544 23.517 7.29079 23.2626 7.29079 22.9974V2.58736L10.9108 6.20737C11.0038 6.3011 11.1144 6.37549 11.2362 6.42626C11.3581 6.47703 11.4888 6.50317 11.6208 6.50317C11.7528 6.50317 11.8835 6.47703 12.0054 6.42626C12.1272 6.37549 12.2378 6.3011 12.3308 6.20737C12.517 6.02001 12.6216 5.76655 12.6216 5.50237C12.6216 5.23818 12.517 4.98473 12.3308 4.79737L8.42079 0.877361C7.85829 0.315559 7.0958 0 6.30079 0C5.50579 0 4.74329 0.315559 4.18079 0.877361L0.290792 4.79737C0.104542 4.98473 0 5.23818 0 5.50237C0 5.76655 0.104542 6.02001 0.290792 6.20737Z" fill="var(--fill-0, #E61E32)" style="fill:#E61E32;fill:color(display-p3 0.9020 0.1176 0.1961);fill-opacity:1;"/>
</svg>
