<svg preserveAspectRatio="none" width="100%" height="100%" overflow="visible" style="display: block;" viewBox="0 0 16.1593 23.2727" fill="none" xmlns="http://www.w3.org/2000/svg">
<path id="Vector" d="M4.84091 13.1818V23.2727H0V0H4.70455V8.89773H4.9091C5.30304 7.86742 5.9394 7.06061 6.81818 6.47727C7.69697 5.88636 8.79924 5.59091 10.125 5.59091C11.3371 5.59091 12.3939 5.85606 13.2955 6.38636C14.2045 6.90909 14.9091 7.66288 15.4091 8.64773C15.9167 9.625 16.1667 10.7955 16.1591 12.1591V23.2727H11.3182V13.0227C11.3258 11.947 11.053 11.1098 10.5 10.5114C9.95455 9.91288 9.1894 9.61364 8.20455 9.61364C7.54546 9.61364 6.96213 9.75379 6.45455 10.0341C5.95455 10.3144 5.56061 10.7235 5.27273 11.2614C4.99242 11.7917 4.84849 12.4318 4.84091 13.1818Z" fill="var(--fill-0, #060A11)" style="fill:#060A11;fill:color(display-p3 0.0235 0.0392 0.0667);fill-opacity:1;"/>
</svg>
